<svg width="625" height="889" viewBox="0 0 625 889" fill="none" xmlns="http://www.w3.org/2000/svg">
<path d="M143.055 0.223137C139.912 0.404978 138.107 0.44812 135.055 1.22314C130.23 2.44855 123.555 6.72314 123.555 6.72314L114.555 16.2231L109.055 30.7231L110.555 65.7231L122.555 110.723L137.555 167.723L150.055 202.223L169.555 252.723L181.555 290.223L186.555 312.723L188.055 321.223V347.723L186.555 386.723L184.555 417.223L181.555 445.223L174.055 473.223L167.055 489.723V499.223L156.055 500.223L150.055 503.723L146.555 508.223L137.055 501.223V492.223L135.555 487.723L131.555 476.223L127.055 462.723L123.055 452.223L122.055 445.223L117.555 432.223L116.055 429.223L113.555 425.723L111.055 422.723L113.555 409.723L112.555 398.723L111.055 390.723L107.555 381.223L101.055 366.723L89.5552 349.723L77.0552 332.723L65.0552 319.723L49.5552 307.223L38.5552 302.723L29.0552 301.723C29.0552 301.723 19.242 301.759 14.0552 304.723C9.73959 307.189 7.7818 309.567 5.05525 313.723C0.681264 320.39 0.437545 325.581 0.0660485 333.493L0.0552461 333.723C-0.258591 340.4 0.812595 344.155 2.05525 350.723C3.33189 357.471 4.95316 361.045 6.55525 367.723C8.5564 376.065 11.641 383.17 11.0552 389.223L9.55525 404.723C8.96946 410.776 3.05525 431.223 3.05525 431.223C3.05525 431.223 1.9764 443.79 3.05525 451.723C4.49481 462.308 8.34225 467.535 11.5552 477.723C15.4198 489.977 17.4309 496.896 21.0552 509.223C23.2341 516.634 23.994 520.935 26.5552 528.223C29.9473 537.875 33.8912 542.494 37.0552 552.223C39.6626 560.24 40.1304 565.016 42.0552 573.223C45.2565 586.874 44.1385 595.512 50.0552 608.223C52.5286 613.537 54.2555 616.379 57.5552 621.223C64.8638 631.952 71.3856 636.034 80.5552 645.223C122.867 687.625 145.505 715.404 198.555 743.223C209.076 748.74 215.377 751.018 226.055 756.223C240.027 763.034 249.957 763.875 261.555 774.223C267.339 779.384 269.813 783.092 274.555 789.223C282.343 799.292 285.388 805.879 292.055 816.723C302 832.899 303.113 845.312 316.555 858.723C326.408 868.554 333.417 872.893 346.055 878.723C363.963 886.984 375.839 888.274 395.555 888.723C413.086 889.123 422.922 886.46 440.055 882.723C458.64 878.67 468.842 875.158 486.555 868.223C512.986 857.876 527.374 850.37 551.055 834.723C569.045 822.838 579.246 815.905 594.555 800.723C604.285 791.074 611.477 786.504 617.555 774.223C620.404 768.467 621.68 764.997 623.055 758.723C624.399 752.593 625.192 748.966 624.555 742.723C623.978 737.066 622.439 734.088 620.555 728.723C615.636 714.71 609.02 708.594 602.555 695.223C599.284 688.458 596.763 684.906 594.555 677.723C592.744 671.83 592.576 668.304 591.555 662.223C589.667 650.973 589 644.591 588.055 633.223C585.953 607.926 588.744 586.017 588.055 568.223C587.366 550.429 586.104 540.5 585.055 522.723C584.191 508.083 583.055 485.223 583.055 485.223C582.417 472.143 581.784 464.817 581.555 451.723C581.408 443.328 582.36 438.581 581.555 430.223C580.638 420.693 579.78 415.238 576.555 406.223C574.378 400.136 572.404 397.026 569.555 391.223C565.667 383.305 562.378 379.395 559.055 371.223C556.054 363.843 555.577 359.281 553.055 351.723L552.66 350.539C549.678 341.594 547.883 336.211 544.055 327.223C539.881 317.421 537.75 311.727 532.055 302.723C527.88 296.122 525.897 291.908 520.055 286.723C517.339 284.312 515.767 282.919 512.555 281.223C508.404 279.031 505.725 278.208 501.055 277.723C498.634 277.472 497.209 277.56 494.861 277.704L494.555 277.723C491.606 277.904 489.9 277.925 487.055 278.723C484.611 279.409 481.055 281.223 481.055 281.223C481.055 281.223 477.327 272.109 475.055 266.223C473.253 261.554 472.532 258.821 470.555 254.223C468.141 248.607 466.412 245.627 463.555 240.223C461.472 236.283 460.46 233.976 458.055 230.223C455.421 226.113 453.817 223.855 450.555 220.223L450.414 220.066C446.155 215.322 443.602 212.479 438.055 209.223C434.738 207.276 432.737 206.337 429.055 205.223C426.196 204.358 424.529 204.004 421.555 203.723C418.834 203.466 414.555 203.723 414.555 203.723C414.555 203.723 409.258 185.271 405.055 173.723C401.013 162.615 399.322 156.042 393.555 145.723C389.777 138.963 387.772 134.947 382.555 129.223L382.381 129.032C378.477 124.748 376.126 122.169 371.055 119.223C366.885 116.801 364.5 116 359.555 114.723C354.61 113.446 349 113 341.5 114C334 115 333.098 116.717 328.555 119.223C322.137 122.763 320.85 124.214 315.5 129.223C312 132.5 308.076 136.497 304.055 139.723C300.272 142.759 298.207 144.531 294.555 147.723C281.249 159.354 262.555 179.723 262.555 179.723C262.555 179.723 257.971 167.411 254.555 159.723C251.47 152.78 249.664 148.909 246.055 142.223C240.009 131.021 228.555 114.723 228.555 114.723C218.108 97.6341 203.055 70.2231 203.055 70.2231C197.911 60.1998 195.861 54.1618 190.555 44.2231C187.385 38.2835 185.569 34.9668 182.055 29.2231C178.89 24.0487 177.284 21.0073 173.555 16.2231C171.003 12.9489 169.731 10.8964 166.555 8.22314C163.404 5.57063 161.318 4.39839 157.555 2.72314C154.735 1.46748 153.107 0.687606 150.055 0.223137C147.353 -0.188122 145.784 0.0652545 143.055 0.223137Z" fill="white"/>
</svg>
